<svg width="196" height="67" viewBox="0 0 196 67" fill="none" xmlns="http://www.w3.org/2000/svg">
<path d="M16.4156 18.3C15.109 18.3 13.9623 18.02 12.9756 17.46C12.0023 16.8867 11.249 16.0533 10.7156 14.96C10.1823 13.8667 9.91563 12.5467 9.91563 11C9.91563 9.45333 10.1823 8.13333 10.7156 7.04C11.249 5.94667 12.0023 5.12 12.9756 4.56C13.9623 3.98667 15.109 3.7 16.4156 3.7C17.7223 3.7 18.8623 3.98667 19.8356 4.56C20.8223 5.12 21.5823 5.94667 22.1156 7.04C22.649 8.13333 22.9156 9.45333 22.9156 11C22.9156 12.5467 22.649 13.8667 22.1156 14.96C21.5823 16.0533 20.8223 16.8867 19.8356 17.46C18.8623 18.02 17.7223 18.3 16.4156 18.3ZM16.4156 17.9C16.9356 17.9 17.4156 17.68 17.8556 17.24C18.309 16.8 18.6823 16.0667 18.9756 15.04C19.269 14.0133 19.4156 12.6667 19.4156 11C19.4156 9.33333 19.269 7.98667 18.9756 6.96C18.6823 5.93333 18.309 5.2 17.8556 4.76C17.4156 4.32 16.9356 4.1 16.4156 4.1C15.8956 4.1 15.409 4.32 14.9556 4.76C14.5156 5.2 14.149 5.93333 13.8556 6.96C13.5623 7.98667 13.4156 9.33333 13.4156 11C13.4156 12.6667 13.5623 14.0133 13.8556 15.04C14.149 16.0667 14.5156 16.8 14.9556 17.24C15.409 17.68 15.8956 17.9 16.4156 17.9ZM26.6203 7.4V17.1L28.2203 17.7V18H24.4203V17.7L26.0203 17.1V4.7L24.6203 4.3V4H26.7203C27.427 4 27.9803 4.12667 28.3803 4.38C28.7803 4.63333 29.1603 4.97333 29.5203 5.4L35.9203 12.9V4.9L34.3203 4.3V4H38.1203V4.3L36.5203 4.9V18.3H35.9203L26.6203 7.4ZM39.4297 17.7L40.6297 17.4V4.6L39.4297 4.3V4H45.1297V4.3L43.9297 4.6V17.5H48.2297C48.2297 16.66 48.443 15.88 48.8697 15.16C49.0564 14.8533 49.2764 14.6 49.5297 14.4H50.1297V18H39.4297V17.7ZM51.6367 18V17.7L52.8367 17.4V4.6L51.6367 4.3V4H57.3367V4.3L56.1367 4.6V17.4L57.3367 17.7V18H51.6367ZM60.9367 7.4V17.1L62.5367 17.7V18H58.7367V17.7L60.3367 17.1V4.7L58.9367 4.3V4H61.0367C61.7434 4 62.2967 4.12667 62.6967 4.38C63.0967 4.63333 63.4767 4.97333 63.8367 5.4L70.2367 12.9V4.9L68.6367 4.3V4H72.4367V4.3L70.8367 4.9V18.3H70.2367L60.9367 7.4ZM73.7461 17.7L74.9461 17.4V4.6L73.7461 4.3V4H84.4461V7.6H83.8461C83.5928 7.4 83.3728 7.14667 83.1861 6.84C82.7594 6.12 82.5461 5.34 82.5461 4.5H78.2461V10.8H80.5461C80.6394 10.2933 80.8128 9.82 81.0661 9.38C81.1728 9.18 81.2994 8.98667 81.4461 8.8H82.0461V13.3H81.4461C81.2994 13.1133 81.1728 12.92 81.0661 12.72C80.8128 12.28 80.6394 11.8067 80.5461 11.3H78.2461V17.5H82.9461C82.9461 16.66 83.1594 15.88 83.5861 15.16C83.7728 14.8533 83.9928 14.6 84.2461 14.4H84.8461V18H73.7461V17.7ZM98.9422 18.3C96.8089 18.3 95.1422 17.6667 93.9422 16.4C92.7422 15.1333 92.1422 13.3333 92.1422 11C92.1422 9.46667 92.4022 8.15333 92.9222 7.06C93.4555 5.95333 94.1955 5.12 95.1422 4.56C96.1022 3.98667 97.2089 3.7 98.4622 3.7C99.2222 3.7 99.9889 3.92 100.762 4.36C101.056 4.52 101.349 4.73333 101.642 5C101.869 4.65333 102.102 4.38 102.342 4.18C102.582 4.00667 102.716 3.91333 102.742 3.9H103.242V7.7H102.442C102.269 7.06 102.009 6.48 101.662 5.96C101.342 5.45333 100.942 5.03333 100.462 4.7C99.9955 4.36667 99.4555 4.2 98.8422 4.2C97.9222 4.2 97.1555 4.73333 96.5422 5.8C95.9422 6.86667 95.6422 8.6 95.6422 11C95.6422 13.44 95.9689 15.1867 96.6222 16.24C97.2889 17.28 98.1955 17.8 99.3422 17.8C99.9689 17.8 100.562 17.6267 101.122 17.28C101.696 16.92 102.156 16.4467 102.502 15.86C102.862 15.2733 103.042 14.6533 103.042 14H103.542C103.542 14.76 103.336 15.4733 102.922 16.14C102.522 16.7933 101.969 17.32 101.262 17.72C100.569 18.1067 99.7955 18.3 98.9422 18.3ZM111.259 18.3C109.953 18.3 108.806 18.02 107.819 17.46C106.846 16.8867 106.093 16.0533 105.559 14.96C105.026 13.8667 104.759 12.5467 104.759 11C104.759 9.45333 105.026 8.13333 105.559 7.04C106.093 5.94667 106.846 5.12 107.819 4.56C108.806 3.98667 109.953 3.7 111.259 3.7C112.566 3.7 113.706 3.98667 114.679 4.56C115.666 5.12 116.426 5.94667 116.959 7.04C117.493 8.13333 117.759 9.45333 117.759 11C117.759 12.5467 117.493 13.8667 116.959 14.96C116.426 16.0533 115.666 16.8867 114.679 17.46C113.706 18.02 112.566 18.3 111.259 18.3ZM111.259 17.9C111.779 17.9 112.259 17.68 112.699 17.24C113.153 16.8 113.526 16.0667 113.819 15.04C114.113 14.0133 114.259 12.6667 114.259 11C114.259 9.33333 114.113 7.98667 113.819 6.96C113.526 5.93333 113.153 5.2 112.699 4.76C112.259 4.32 111.779 4.1 111.259 4.1C110.739 4.1 110.253 4.32 109.799 4.76C109.359 5.2 108.993 5.93333 108.699 6.96C108.406 7.98667 108.259 9.33333 108.259 11C108.259 12.6667 108.406 14.0133 108.699 15.04C108.993 16.0667 109.359 16.8 109.799 17.24C110.253 17.68 110.739 17.9 111.259 17.9ZM121.464 7.4V17.1L123.064 17.7V18H119.264V17.7L120.864 17.1V4.7L119.464 4.3V4H121.564C122.271 4 122.824 4.12667 123.224 4.38C123.624 4.63333 124.004 4.97333 124.364 5.4L130.764 12.9V4.9L129.164 4.3V4H132.964V4.3L131.364 4.9V18.3H130.764L121.464 7.4ZM136.969 17.7L138.169 17.4V4.5H135.869C135.869 5.31333 135.649 6.09333 135.209 6.84C135.022 7.14667 134.809 7.4 134.569 7.6H133.969V4H145.669V7.6H145.069C144.815 7.4 144.595 7.14667 144.409 6.84C143.982 6.12 143.769 5.34 143.769 4.5H141.469V17.4L142.669 17.7V18H136.969V17.7ZM147.164 17.7L148.364 17.4V4.6L147.164 4.3V4H152.464C154.731 4 156.364 4.34667 157.364 5.04C158.364 5.72 158.864 6.67333 158.864 7.9C158.864 8.72667 158.644 9.4 158.204 9.92C157.764 10.4267 157.197 10.8067 156.504 11.06C155.771 11.34 154.991 11.4867 154.164 11.5V11.6C154.657 11.6267 155.091 11.7 155.464 11.82C156.397 12.1133 157.031 12.64 157.364 13.4L159.164 17.4L160.164 17.7V18H157.364C156.271 18 155.471 17.4333 154.964 16.3L152.964 11.8H151.664V17.4L153.064 17.7V18H147.164V17.7ZM152.464 11.3C153.397 11.3 154.131 11.0067 154.664 10.42C155.197 9.83333 155.464 8.99333 155.464 7.9C155.464 6.80667 155.197 5.96667 154.664 5.38C154.131 4.79333 153.397 4.5 152.464 4.5H151.664V11.3H152.464ZM167.373 18.3C166.066 18.3 164.919 18.02 163.933 17.46C162.959 16.8867 162.206 16.0533 161.673 14.96C161.139 13.8667 160.873 12.5467 160.873 11C160.873 9.45333 161.139 8.13333 161.673 7.04C162.206 5.94667 162.959 5.12 163.933 4.56C164.919 3.98667 166.066 3.7 167.373 3.7C168.679 3.7 169.819 3.98667 170.793 4.56C171.779 5.12 172.539 5.94667 173.073 7.04C173.606 8.13333 173.873 9.45333 173.873 11C173.873 12.5467 173.606 13.8667 173.073 14.96C172.539 16.0533 171.779 16.8867 170.793 17.46C169.819 18.02 168.679 18.3 167.373 18.3ZM167.373 17.9C167.893 17.9 168.373 17.68 168.813 17.24C169.266 16.8 169.639 16.0667 169.933 15.04C170.226 14.0133 170.373 12.6667 170.373 11C170.373 9.33333 170.226 7.98667 169.933 6.96C169.639 5.93333 169.266 5.2 168.813 4.76C168.373 4.32 167.893 4.1 167.373 4.1C166.853 4.1 166.366 4.32 165.913 4.76C165.473 5.2 165.106 5.93333 164.813 6.96C164.519 7.98667 164.373 9.33333 164.373 11C164.373 12.6667 164.519 14.0133 164.813 15.04C165.106 16.0667 165.473 16.8 165.913 17.24C166.366 17.68 166.853 17.9 167.373 17.9ZM175.777 17.7L176.977 17.4V4.6L175.777 4.3V4H181.477V4.3L180.277 4.6V17.5H184.577C184.577 16.66 184.791 15.88 185.217 15.16C185.404 14.8533 185.624 14.6 185.877 14.4H186.477V18H175.777V17.7Z" fill="white"/>
<rect x="41.0005" y="51.812" width="32" height="1.54334" rx="0.771672" fill="#E3B873"/>
<rect x="123" y="51.812" width="32" height="1.54334" rx="0.771672" fill="#E3B873"/>
<path d="M114.851 47.7655L90.7306 38.8293C90.4221 38.7153 90.0793 38.8731 89.9655 39.1818C89.9653 39.1821 89.9653 39.1823 89.965 39.1826L87.2949 46.4507C87.1814 46.7595 87.3396 47.102 87.6484 47.2155H87.6489L90.4448 48.2421L89.8288 49.9204C89.7155 50.2292 89.8738 50.5712 90.1825 50.6847L95.7753 52.738L95.3643 53.8569C94.9908 54.8589 95.3393 55.987 96.2134 56.6032V59.6434H88.1974C87.8094 58.7564 87.0154 58.1123 86.0671 57.9158V56.6648C86.0671 56.3357 85.8006 56.069 85.4713 56.069H83.0694C82.7404 56.069 82.4736 56.3357 82.4736 56.6648V66.1965C82.4736 66.5258 82.7404 66.7923 83.0694 66.7923H85.4713C85.8006 66.7923 86.0671 66.5258 86.0671 66.1965V64.9457C87.0154 64.7489 87.8094 64.1051 88.1974 63.2178H96.2134V63.8136C96.2134 64.8007 97.0134 65.601 98.0005 65.601C98.9875 65.601 99.7878 64.8007 99.7878 63.8136V57.214C100.329 56.9455 100.748 56.4797 100.956 55.9122L101.367 54.7934L106.4 56.6403C106.466 56.6645 106.535 56.6768 106.605 56.6768C106.855 56.6768 107.079 56.521 107.165 56.2865L107.388 55.6782C109.327 56.043 111.194 54.7672 111.558 52.8288C111.693 52.1125 111.606 51.3722 111.308 50.7072L114.919 48.8528C115.212 48.7028 115.328 48.3438 115.178 48.051C115.11 47.918 114.994 47.8155 114.854 47.7638L114.851 47.7655ZM97.4047 57.146L97.898 57.3248C98.1225 57.4053 98.358 57.4515 98.5962 57.4618V59.6434H97.4047V57.146ZM84.8758 65.601H83.6652V57.2605H84.8758V65.601ZM87.2586 62.0265C87.2576 62.7836 86.7806 63.4584 86.0671 63.7119V59.1496C86.7806 59.4029 87.2576 60.0777 87.2586 60.835V62.0265ZM88.4687 60.835H98.5962V62.0265H88.4687V60.835ZM98.0005 64.4094C97.6714 64.4094 97.4047 64.1426 97.4047 63.8136V63.2178H98.5962V63.8136C98.5962 64.1426 98.3295 64.4094 98.0005 64.4094ZM100.249 54.3831L99.8378 55.5019C99.6108 56.119 98.9265 56.4355 98.309 56.209L97.1884 55.7985C96.5709 55.5717 96.2539 54.8872 96.4806 54.2694C96.4806 54.2694 96.4806 54.2694 96.4806 54.2691L96.8919 53.1511L99.9116 54.2596L100.249 54.3831ZM106.252 55.3184L91.1523 49.7736L91.5636 48.6548L100.511 51.9405C100.723 52.0175 100.96 51.9693 101.125 51.8152L102.797 50.2414L107.484 51.963L106.252 55.3184ZM110.28 52.9901C109.903 54.0079 108.887 54.6439 107.807 54.5391L108.728 52.0315L110.231 51.2572C110.466 51.8077 110.484 52.4273 110.28 52.9901ZM108.269 50.9302C108.238 50.9329 108.206 50.9384 108.176 50.9467L102.864 48.9963C102.652 48.9186 102.415 48.9668 102.25 49.1214L100.577 50.6954L88.6187 46.3042L90.8773 40.1544L113.168 48.4126L108.269 50.9302Z" fill="#E3B873"/>
<path d="M94.1292 46.7034L93.6038 48.1233M96.419 47.5434L95.8935 48.9633M98.641 48.3699L98.1155 49.7898" stroke="#E3B873" stroke-linecap="round"/>
</svg>
